<?xml version="1.0" encoding="UTF-8"?>
<svg version="1.1" xmlns="http://www.w3.org/2000/svg" width="1024" height="1024">
<path d="M0 0 C337.92 0 675.84 0 1024 0 C1024 337.92 1024 675.84 1024 1024 C686.08 1024 348.16 1024 0 1024 C0 686.08 0 348.16 0 0 Z " fill="#FBFBFB" transform="translate(0,0)"/>
<path d="M0 0 C1.83109818 -0.00953201 1.83109818 -0.00953201 3.69918823 -0.01925659 C56.798833 -0.19109432 109.69089828 11.35936581 157.5625 34.4375 C158.37589844 34.82373535 159.18929687 35.2099707 160.02734375 35.60791016 C190.41723498 50.0857776 218.42143299 69.07977284 243.5625 91.4375 C244.06700684 91.88416016 244.57151367 92.33082031 245.09130859 92.79101562 C256.53039871 102.96076976 267.74048593 113.68254952 277.5625 125.4375 C278.73232422 126.77361328 278.73232422 126.77361328 279.92578125 128.13671875 C297.03474504 147.77213575 311.38200372 169.45484049 323.5625 192.4375 C323.90877441 193.09008789 324.25504883 193.74267578 324.61181641 194.41503906 C334.23513571 212.723275 342.10362294 231.80331858 348.5625 251.4375 C349.07939148 252.96745995 349.59631815 254.497408 350.11328125 256.02734375 C355.81870616 273.19302402 360.01468131 290.75631841 362.8125 308.625 C363.03897217 310.0627478 363.03897217 310.0627478 363.27001953 311.52954102 C365.98184806 330.00635692 366.9723766 348.46657274 366.9375 367.125 C366.93728851 368.18211182 366.93707703 369.23922363 366.93685913 370.32836914 C366.81472431 432.00471845 351.06200842 492.71446539 320.5625 546.4375 C320.17529785 547.12666504 319.7880957 547.81583008 319.38916016 548.52587891 C307.05250423 570.38434813 292.22389575 590.68273478 275.5625 609.4375 C274.71558594 610.3965625 273.86867188 611.355625 272.99609375 612.34375 C267.30821989 618.66553957 261.37438938 624.72490419 255.375 630.75 C254.62653809 631.50313477 253.87807617 632.25626953 253.10693359 633.03222656 C248.42086346 637.70485179 243.59501133 642.14158707 238.5625 646.4375 C237.65886719 647.22253906 236.75523437 648.00757813 235.82421875 648.81640625 C182.8441771 693.75698786 116.2281393 722.0151495 47.5625 731.4375 C46.3252417 731.61700195 45.0879834 731.79650391 43.81323242 731.98144531 C31.0415187 733.70132224 18.30227112 733.74279546 5.43237305 733.69824219 C1.7665949 733.68754841 -1.89869003 733.69818105 -5.56445312 733.7109375 C-19.63645134 733.71965492 -33.46874207 733.16292124 -47.4375 731.4375 C-48.59757568 731.29683105 -49.75765137 731.15616211 -50.95288086 731.01123047 C-123.39987306 721.46408864 -193.86954716 687.96421081 -247.4375 638.4375 C-248.44586654 637.52001052 -249.4550243 636.60339011 -250.46484375 635.6875 C-257.87049019 628.95998855 -265.0362188 622.1778258 -271.56640625 614.5859375 C-273.58599276 612.26699683 -275.66715234 610.01221415 -277.75 607.75 C-325.00354067 555.22832811 -356.45341713 483.4415121 -364.4375 413.4375 C-364.54046387 412.57576172 -364.64342773 411.71402344 -364.74951172 410.82617188 C-368.39543956 378.77886934 -368.79443257 344.27825319 -363.4375 312.4375 C-363.24414062 311.25124023 -363.05078125 310.06498047 -362.8515625 308.84277344 C-353.09142923 250.41753122 -330.97303428 195.09526763 -295.4375 147.4375 C-294.79868896 146.57342529 -294.79868896 146.57342529 -294.14697266 145.69189453 C-280.82546305 127.73771959 -265.66682532 109.60383177 -248.625 95.0625 C-246.4848092 93.22340068 -244.37080621 91.37544791 -242.3046875 89.453125 C-208.38728324 57.95018003 -165.06202552 34.26473805 -121.4375 19.4375 C-119.93364746 18.92195557 -119.93364746 18.92195557 -118.39941406 18.39599609 C-100.07927634 12.20503297 -81.44137959 7.87162653 -62.4375 4.4375 C-61.1990332 4.2101416 -59.96056641 3.9827832 -58.68457031 3.74853516 C-39.18283274 0.35022809 -19.75324075 0.05263592 0 0 Z " fill="#000000" transform="translate(511.4375,145.5625)"/>
<path d="M0 0 C0.99 0.33 1.98 0.66 3 1 C2.40574219 2.03253906 1.81148437 3.06507813 1.19921875 4.12890625 C-5.20401178 15.3810453 -10.86807335 26.88615841 -16.38525391 38.59277344 C-19.48941495 45.14276913 -22.65100884 51.66502934 -25.8125 58.1875 C-26.15237946 58.88922333 -26.49225891 59.59094666 -26.84243774 60.31393433 C-32.16138919 71.28959088 -37.58596063 82.20832848 -43.06176758 93.10644531 C-47.54050596 102.03703043 -51.88049713 111.02714911 -56.16796875 120.05078125 C-59.35393904 126.75612419 -62.58190105 133.4410864 -65.8125 140.125 C-66.25061005 141.03152313 -66.25061005 141.03152313 -66.6975708 141.95635986 C-66.99024841 142.5619574 -67.28292603 143.16755493 -67.58447266 143.79150391 C-67.87860046 144.40010254 -68.17272827 145.00870117 -68.47576904 145.63574219 C-69.07407735 146.87371709 -69.67242552 148.11167273 -70.27081299 149.34960938 C-72.11407906 153.16376085 -73.95417372 156.97942378 -75.79161072 160.79638672 C-77.02329425 163.35499089 -78.25582814 165.91318508 -79.4883728 168.47137451 C-80.33654713 170.23265069 -81.18356 171.99448605 -82.03051758 173.75634766 C-84.91831549 179.74808166 -87.84804022 185.71593842 -90.83203125 191.66015625 C-94.99131423 199.94659376 -99.04862911 208.28128389 -103.09744263 216.62213135 C-109.28120261 229.35991588 -115.47352022 242.09057819 -121.87817383 254.71923828 C-122.27029053 255.49509277 -122.66240723 256.27094727 -123.06640625 257.0703125 C-123.5605603 258.04121826 -123.5605603 258.04121826 -124.06469727 259.03173828 C-125.14645793 261.30820773 -126.06393934 263.65984835 -127 266 C-100.6 266 -74.2 266 -47 266 C-48.72913041 270.32282603 -50.14469067 272.7419463 -52.9375 276.3125 C-56.61124943 281.07789506 -60.06442792 285.95528323 -63.4375 290.9375 C-67.13189588 296.37551262 -70.96522354 301.62102821 -75.02368164 306.79370117 C-80.7425659 314.14973438 -85.96434496 321.8687651 -91.27587891 329.52050781 C-99.03305222 340.67625013 -106.94351926 351.71983579 -114.91015625 362.7265625 C-117.63870532 366.49731821 -120.35660836 370.27545481 -123.0625 374.0625 C-123.65853027 374.89648315 -123.65853027 374.89648315 -124.26660156 375.74731445 C-126.4791519 378.84942395 -128.67698568 381.96135894 -130.86328125 385.08203125 C-140.2420057 398.46028039 -150.05432748 411.47264458 -160.00146484 424.43139648 C-164.6899052 430.55702145 -169.27034253 436.75885849 -173.83496094 442.97705078 C-179.97931139 451.34560823 -186.215835 459.6435291 -192.45898438 467.93847656 C-193.93173882 469.89592255 -195.40364166 471.85400439 -196.875 473.8125 C-197.36427979 474.46355713 -197.85355957 475.11461426 -198.35766602 475.78540039 C-201.68953206 480.22806854 -204.98416192 484.69685909 -208.26708984 489.17578125 C-213.42654089 496.21407509 -218.65250552 503.17086786 -224.09130859 509.99560547 C-227.70826302 514.56065458 -231.08750325 519.27078282 -234.44238281 524.03027344 C-237.46526682 528.30084981 -240.64731056 532.39744252 -243.9453125 536.45703125 C-250.25461224 544.26568929 -256.24614192 552.28099272 -262.03417969 560.48071289 C-265.99092602 566.05438408 -270.14452802 571.46932921 -274.31689453 576.88256836 C-277.34276026 580.81350415 -280.30645657 584.77321891 -283.1875 588.8125 C-286.70769706 593.70535252 -290.53701497 598.28870793 -294.421875 602.89453125 C-301.16977231 610.95565744 -307.40229685 619.42625019 -313.40625 628.05078125 C-313.9321875 628.69402344 -314.458125 629.33726562 -315 630 C-315.66 630 -316.32 630 -317 630 C-314.82285899 621.97847522 -311.84033842 614.40628695 -308.625 606.75 C-308.0905705 605.46857609 -307.55631347 604.18708024 -307.0222168 602.90551758 C-302.83446345 592.8832514 -298.52471316 582.91445636 -294.1875 572.95605469 C-289.77804983 562.82731254 -285.4393636 552.66958037 -281.125 542.5 C-280.60560349 541.27573303 -280.60560349 541.27573303 -280.07571411 540.0267334 C-279.72403168 539.19774536 -279.37234924 538.36875732 -279.01000977 537.51464844 C-278.27491104 535.78189735 -277.53980342 534.04915004 -276.8046875 532.31640625 C-276.24094673 530.98746841 -276.24094673 530.98746841 -275.66581726 529.63168335 C-272.53763058 522.26023389 -269.39899502 514.89326349 -266.2578125 507.52734375 C-253.29984834 477.14839797 -253.29984834 477.14839797 -240.49365234 446.70532227 C-236.37296489 436.85182826 -232.16844094 427.03567881 -227.95013428 417.22372437 C-221.49323611 402.20058998 -215.13081234 387.13808034 -208.78466797 372.06787109 C-208.40155457 371.15865906 -208.01844116 370.24944702 -207.62371826 369.31268311 C-206.92638058 367.65754069 -206.22955773 366.00218117 -205.5335083 364.34649658 C-201.4034445 354.54357948 -197.19052747 344.77789743 -193 335 C-221.71 335 -250.42 335 -280 335 C-277.15208143 330.72812214 -274.32617117 326.85662253 -271 323 C-270.52578613 322.4445752 -270.05157227 321.88915039 -269.56298828 321.31689453 C-268.04563428 319.54143648 -266.52349829 317.77018745 -265 316 C-262.95780913 313.62545003 -260.9160342 311.25054429 -258.875 308.875 C-258.36904297 308.28654297 -257.86308594 307.69808594 -257.34179688 307.09179688 C-254.34627353 303.59896226 -251.40146042 300.07183394 -248.5 296.5 C-241.497017 287.888737 -234.30330553 279.44593652 -226.75 271.3125 C-222.80141176 267.01809591 -219.42181567 262.51519439 -216.0625 257.75390625 C-213.11209579 253.81444608 -209.7811225 250.27806866 -206.43359375 246.67578125 C-203.50275902 243.45327436 -200.81570587 240.0832115 -198.125 236.66015625 C-195.66175116 233.57656717 -193.12053729 230.56747897 -190.5625 227.5625 C-184.70412405 220.66869949 -178.89066632 213.7416641 -173.34765625 206.58984375 C-168.30315484 200.08382631 -163.13342449 193.87598026 -157.52734375 187.8359375 C-154.23128907 184.13742792 -151.21220039 180.25767476 -148.18237305 176.34082031 C-144.54705238 171.65429943 -140.76360297 167.11708651 -136.90991211 162.609375 C-134.25126046 159.49439825 -131.65787627 156.34286796 -129.125 153.125 C-125.22614017 148.20557973 -121.12230889 143.47933447 -116.99755859 138.74975586 C-113.37516865 134.59484632 -109.79570171 130.40797398 -106.25 126.1875 C-102.98863663 122.3068236 -99.66651119 118.49546581 -96.25 114.75 C-93.61685949 111.85261828 -91.11825693 108.92954405 -88.75 105.8125 C-84.02225286 99.61074394 -78.8178936 93.81370535 -73.69189453 87.94189453 C-66.77850962 80.00696472 -59.96913649 71.99985626 -53.33203125 63.83203125 C-48.14090077 57.52789457 -42.77012445 51.37372161 -37.43847656 45.18847656 C-31.65690079 38.47778378 -25.9351445 31.73605251 -20.35546875 24.85546875 C-17.55759258 21.46368188 -14.68772256 18.13868595 -11.8125 14.8125 C-7.66590168 10.01124413 -3.70969041 5.15234779 0 0 Z " fill="#FDFDFD" transform="translate(663,195)"/>
<path d="M0 0 C21.39372341 -0.47214736 41.92411284 -0.24651988 63 4 C64.12390137 4.2163208 64.12390137 4.2163208 65.27050781 4.43701172 C95.90415547 10.55040294 125.87944605 31.30447828 144 56.5625 C167.61288022 92.9988545 170.85504228 138.27516076 162.47802734 180.12719727 C157.53333993 203.17104214 148.06368707 223.68174576 132 241 C131.49839355 241.54543457 130.99678711 242.09086914 130.47998047 242.65283203 C112.92722974 261.53575648 90.21279494 275.93820036 65 282 C63.80890625 282.29132813 62.6178125 282.58265625 61.390625 282.8828125 C43.91177305 286.7461639 26.19008524 287.2960417 8.359375 287.1953125 C6.370139 287.19156882 4.38090112 287.18872829 2.3916626 287.18673706 C-2.77023678 287.17920702 -7.93201832 287.15965389 -13.09387207 287.1373291 C-19.32675747 287.11298095 -25.55968291 287.10403894 -31.79260254 287.09242249 C-41.19514958 287.0732201 -50.59743958 287.0348243 -60 287 C-60 268.52 -60 250.04 -60 231 C-50.74582031 230.96132813 -50.74582031 230.96132813 -41.3046875 230.921875 C-37.34891933 230.89664884 -33.3932233 230.87027172 -29.4375 230.83984375 C-23.18652269 230.791867 -16.9357128 230.74769063 -10.68457031 230.72900391 C-5.63333135 230.71363377 -0.58253657 230.67883955 4.46850204 230.63169098 C6.37612883 230.61708356 8.2838191 230.60897117 10.19150162 230.60811615 C33.93107552 230.58681597 58.25059275 227.8765142 77 212 C77.71671875 211.39542969 78.4334375 210.79085937 79.171875 210.16796875 C94.80564135 195.77642027 101.14078332 172.34332136 102.10986328 151.65454102 C102.66248385 128.19138613 100.8220512 102.19443994 84.625 83.6875 C83.10482147 82.10408609 81.56414449 80.53999818 80 79 C79.04287109 78.04480469 79.04287109 78.04480469 78.06640625 77.0703125 C61.49944405 61.57107552 40.18146581 58.98096976 18.43359375 58.68359375 C17.15895767 58.66281265 15.88432159 58.64203156 14.57106018 58.62062073 C11.21254549 58.56662126 7.8540179 58.5162817 4.49542236 58.46777344 C1.05614366 58.41717931 -2.38305591 58.36169291 -5.82226562 58.30664062 C-12.5481137 58.19995909 -19.2740217 58.09810865 -26 58 C-25.23146342 53.74301137 -23.89538413 50.39559608 -21.97265625 46.50390625 C-21.66779297 45.88165161 -21.36292969 45.25939697 -21.04882812 44.61828613 C-20.39595525 43.28651471 -19.74061921 41.95594844 -19.08303833 40.62649536 C-17.36558997 37.1530291 -15.66699939 33.67038387 -13.96875 30.1875 C-13.62981216 29.49310318 -13.29087433 28.79870636 -12.94166565 28.08326721 C-8.43011866 18.81317113 -4.19202963 9.41814341 0 0 Z " fill="#FEFEFE" transform="translate(607,365)"/>
<path d="M0 0 C20.13 0 40.26 0 61 0 C61 95.04 61 190.08 61 288 C40.87 288 20.74 288 0 288 C0 192.96 0 97.92 0 0 Z " fill="#FEFEFE" transform="translate(295,364)"/>
<path d="M0 0 C1.66601426 0.00503229 3.33203001 0.0095921 4.99804688 0.01367188 C9.01956926 0.02452381 13.04101733 0.04168984 17.0625 0.0625 C17.0625 0.3925 17.0625 0.7225 17.0625 1.0625 C8.4825 1.3925 -0.0975 1.7225 -8.9375 2.0625 C-8.9375 8.0025 -8.9375 13.9425 -8.9375 20.0625 C-17.1875 20.0625 -25.4375 20.0625 -33.9375 20.0625 C-33.9375 13.7925 -33.9375 7.5225 -33.9375 1.0625 C-22.59457707 0.17162108 -11.37373109 -0.06068738 0 0 Z " fill="#F1F1F1" transform="translate(508.9375,878.9375)"/>
<path d="M0 0 C5.94 0 11.88 0 18 0 C18 8.25 18 16.5 18 25 C14.7 25 11.4 25 8 25 C6.35172651 21.73037581 4.70628803 18.45937821 3.0625 15.1875 C2.59392578 14.25873047 2.12535156 13.32996094 1.64257812 12.37304688 C1.19462891 11.48037109 0.74667969 10.58769531 0.28515625 9.66796875 C-0.33540649 8.43469849 -0.33540649 8.43469849 -0.96850586 7.17651367 C-2 5 -2 5 -3 2 C-2.01 2 -1.02 2 0 2 C0 1.34 0 0.68 0 0 Z " fill="#F5F5F5" transform="translate(832,325)"/>
<path d="M0 0 C1.03688965 0.01047363 2.0737793 0.02094727 3.14208984 0.03173828 C4.26357422 0.03818359 5.38505859 0.04462891 6.54052734 0.05126953 C7.71615234 0.06802734 8.89177734 0.08478516 10.10302734 0.10205078 C11.87806641 0.11558594 11.87806641 0.11558594 13.68896484 0.12939453 C16.61885257 0.15302266 19.54834075 0.18596564 22.47802734 0.22705078 C22.47802734 3.52705078 22.47802734 6.82705078 22.47802734 10.22705078 C18.61766219 11.19214207 17.58288635 11.25156409 13.96630859 10.30126953 C12.70657227 9.9715918 12.70657227 9.9715918 11.42138672 9.63525391 C10.55320312 9.39742187 9.68501953 9.15958984 8.79052734 8.91455078 C7.91074219 8.68832031 7.03095703 8.46208984 6.12451172 8.22900391 C1.28728542 6.93485007 1.28728542 6.93485007 -0.52197266 6.22705078 C-0.85197266 5.56705078 -1.18197266 4.90705078 -1.52197266 4.22705078 C-2.51197266 3.56705078 -3.50197266 2.90705078 -4.52197266 2.22705078 C-2.52197266 0.22705078 -2.52197266 0.22705078 0 0 Z " fill="#F6F6F6" transform="translate(602.52197265625,150.77294921875)"/>
<path d="M0 0 C0.66 0.33 1.32 0.66 2 1 C2 1.66 2 2.32 2 3 C0.02 3.99 -1.96 4.98 -4 6 C-4 5.01 -4 4.02 -4 3 C-2 1.3125 -2 1.3125 0 0 Z M-7 5 C-6.34 5.33 -5.68 5.66 -5 6 C-5.99 6 -6.98 6 -8 6 C-7.67 5.67 -7.34 5.34 -7 5 Z M-10 7 C-9.34 7 -8.68 7 -8 7 C-8.33 7.99 -8.66 8.98 -9 10 C-9.66 10 -10.32 10 -11 10 C-10.67 9.01 -10.34 8.02 -10 7 Z " fill="#ECECEC" transform="translate(724,811)"/>
<path d="M0 0 C0.66 0.33 1.32 0.66 2 1 C1.67 1.99 1.34 2.98 1 4 C0.34 4 -0.32 4 -1 4 C-1.33 4.99 -1.66 5.98 -2 7 C-2.99 6.67 -3.98 6.34 -5 6 C-3.35 4.02 -1.7 2.04 0 0 Z M-7 6 C-6.34 6.33 -5.68 6.66 -5 7 C-5.99 7.99 -6.98 8.98 -8 10 C-7.67 8.68 -7.34 7.36 -7 6 Z " fill="#F0F0F0" transform="translate(747,793)"/>
<path d="M0 0 C1.48206495 0.254496 2.96068615 0.52911762 4.4375 0.8125 C5.67306641 1.03873047 5.67306641 1.03873047 6.93359375 1.26953125 C7.95646484 1.63111328 7.95646484 1.63111328 9 2 C9.33 2.99 9.66 3.98 10 5 C6.05140217 4.4359146 3.29120954 3.2568294 0 1 C0 0.67 0 0.34 0 0 Z " fill="#F3F3F3" transform="translate(402,863)"/>
<path d="M0 0 C0.33 0 0.66 0 1 0 C0.44687265 4.02992782 -0.1558062 8.02022924 -1 12 C-1.33 12 -1.66 12 -2 12 C-2.05422947 10.5629191 -2.09289723 9.12524538 -2.125 7.6875 C-2.14820313 6.88699219 -2.17140625 6.08648437 -2.1953125 5.26171875 C-2 3 -2 3 0 0 Z " fill="#DEDEDE" transform="translate(879,477)"/>
<path d="M0 0 C0.66 0 1.32 0 2 0 C2.36923077 5.53846154 2.36923077 5.53846154 0.5 7.875 C-0.2425 8.431875 -0.2425 8.431875 -1 9 C-2.60031344 5.79937313 -1.03173691 3.27728194 0 0 Z " fill="#EDEDED" transform="translate(864,613)"/>
<path d="M0 0 C1.32 0 2.64 0 4 0 C4 0.66 4 1.32 4 2 C5.32 2.33 6.64 2.66 8 3 C4.06329512 4.31223496 1.87511856 3.24296256 -2 2 C-1.34 1.34 -0.68 0.68 0 0 Z " fill="#EEEEEF" transform="translate(612,157)"/>
</svg>
