<svg xmlns="http://www.w3.org/2000/svg" width="1440" height="560" viewBox="0 0 1440 560" fill="none" preserveAspectRatio="none">
  <defs>
    <linearGradient id="bgGrad" x1="0" y1="0" x2="0" y2="1">
      <stop offset="0%" stop-color="#EEF7FF" />
      <stop offset="100%" stop-color="#FFFFFF" />
    </linearGradient>
    <linearGradient id="waveMain" x1="0" y1="0" x2="1" y2="0">
      <stop offset="0%" stop-color="#8CB6D9" stop-opacity="0.6" />
      <stop offset="50%" stop-color="#76C9B7" stop-opacity="0.5" />
      <stop offset="100%" stop-color="#A7D8F4" stop-opacity="0.6" />
    </linearGradient>
    <linearGradient id="waveSoft" x1="0" y1="0" x2="1" y2="0">
      <stop offset="0%" stop-color="#BFD7EA" stop-opacity="0.35" />
      <stop offset="100%" stop-color="#D8EEE7" stop-opacity="0.35" />
    </linearGradient>
  </defs>

  <rect width="1440" height="560" fill="url(#bgGrad)" />

  <path d="M0 390C180 330 340 330 520 390C700 450 860 450 1040 390C1180 340 1300 330 1440 370V560H0V390Z" fill="url(#waveMain)" />

  <path d="M0 430C170 400 330 410 500 445C670 480 840 490 1030 450C1190 415 1320 410 1440 430V560H0V430Z" fill="url(#waveSoft)" />

  <path d="M0 352C180 300 360 305 530 352C700 399 860 405 1035 355C1200 310 1330 305 1440 325" stroke="#7FAFD4" stroke-opacity="0.45" stroke-width="2" />

  <g opacity="0.2" stroke="#6E8EA8" stroke-width="2" fill="none">
    <path d="M120 305V265H160V305" />
    <path d="M132 265V245H148V265" />
    <path d="M145 305V275H180V305" />

    <path d="M1160 295V255H1210V295" />
    <path d="M1175 255V235H1195V255" />
    <path d="M1200 295V270H1235V295" />
  </g>
</svg>
