<svg xmlns="http://www.w3.org/2000/svg" width="1440" height="560" viewBox="0 0 1440 560" fill="none" preserveAspectRatio="none">
  <defs>
    <linearGradient id="bg" x1="0" y1="0" x2="0" y2="1">
      <stop offset="0%" stop-color="#F4FAFF" />
      <stop offset="100%" stop-color="#FFFFFF" />
    </linearGradient>
    <linearGradient id="trail" x1="0" y1="0" x2="1" y2="0">
      <stop offset="0%" stop-color="#8CB6D9" stop-opacity="0.18" />
      <stop offset="100%" stop-color="#76C9B7" stop-opacity="0.22" />
    </linearGradient>
  </defs>

  <rect width="1440" height="560" fill="url(#bg)" />

  <path d="M70 410C250 330 460 300 700 320C920 338 1130 300 1360 220" stroke="url(#trail)" stroke-width="3" stroke-linecap="round" stroke-dasharray="10 12" />

  <path d="M140 460C340 395 560 375 770 392C970 408 1170 378 1368 312" stroke="#AFC9DF" stroke-opacity="0.28" stroke-width="2" stroke-linecap="round" stroke-dasharray="6 14" />

  <g transform="translate(1260 205) rotate(-16)">
    <path d="M0 0L92 30L24 46L0 0Z" fill="#6FA8D6" fill-opacity="0.95" />
    <path d="M24 46L36 84L54 39L24 46Z" fill="#7CC9B7" fill-opacity="0.95" />
    <path d="M0 0L54 39" stroke="#FFFFFF" stroke-opacity="0.85" stroke-width="2" />
  </g>

  <circle cx="360" cy="180" r="2.5" fill="#9AB7CF" fill-opacity="0.35" />
  <circle cx="520" cy="140" r="2" fill="#9AB7CF" fill-opacity="0.28" />
  <circle cx="980" cy="120" r="2.5" fill="#9AB7CF" fill-opacity="0.3" />
</svg>
