<svg xmlns="http://www.w3.org/2000/svg" width="1440" height="560" viewBox="0 0 1440 560" fill="none" preserveAspectRatio="none">
  <defs>
    <linearGradient id="seaTop" x1="0" y1="0" x2="1" y2="0">
      <stop offset="0%" stop-color="#8FBBDD" stop-opacity="0.55" />
      <stop offset="100%" stop-color="#78C8B9" stop-opacity="0.58" />
    </linearGradient>
    <linearGradient id="seaBottom" x1="0" y1="0" x2="1" y2="0">
      <stop offset="0%" stop-color="#BFD9EA" stop-opacity="0.4" />
      <stop offset="100%" stop-color="#CDEDE5" stop-opacity="0.42" />
    </linearGradient>
    <linearGradient id="sun" x1="0" y1="0" x2="0" y2="1">
      <stop offset="0%" stop-color="#FFE7A6" />
      <stop offset="100%" stop-color="#FFD489" />
    </linearGradient>
  </defs>

  <rect width="1440" height="560" fill="#FFFFFF" />

  <circle cx="1180" cy="110" r="44" fill="url(#sun)" opacity="0.9" />
  <circle cx="1180" cy="110" r="62" fill="#FFEEC0" opacity="0.28" />

  <g fill="#FFFFFF" opacity="0.82">
    <ellipse cx="260" cy="125" rx="58" ry="22" />
    <ellipse cx="305" cy="124" rx="34" ry="18" />
    <ellipse cx="225" cy="132" rx="26" ry="14" />

    <ellipse cx="930" cy="152" rx="46" ry="18" />
    <ellipse cx="966" cy="150" rx="28" ry="14" />
    <ellipse cx="900" cy="158" rx="22" ry="12" />
  </g>

  <g stroke="#6A8AA5" stroke-width="3" stroke-linecap="round" fill="none" opacity="0.45">
    <path d="M520 98Q535 85 550 98" />
    <path d="M555 92Q570 79 585 92" />
    <path d="M1020 86Q1036 73 1052 86" />
    <path d="M1058 94Q1071 83 1084 94" />
  </g>

  <path d="M0 360C180 312 350 305 520 344C700 385 875 388 1060 344C1200 312 1315 306 1440 326V560H0V360Z" fill="url(#seaTop)" />
  <path d="M0 420C180 396 360 404 540 433C720 462 900 466 1085 438C1230 418 1336 415 1440 424V560H0V420Z" fill="url(#seaBottom)" />

  <path d="M0 332C170 288 352 282 530 324C705 366 880 370 1060 328C1208 294 1322 286 1440 302" stroke="#7EAED3" stroke-opacity="0.45" stroke-width="2" stroke-dasharray="8 10" />

  <g transform="translate(840 318)">
    <path d="M0 70H170C155 88 128 100 85 100C44 100 16 88 0 70Z" fill="#5E8DAF" fill-opacity="0.45" />
    <rect x="84" y="10" width="4" height="62" fill="#6C7E8B" fill-opacity="0.8" />
    <path d="M88 14L88 62L136 52Z" fill="#FFFFFF" fill-opacity="0.92" />
    <path d="M88 20L88 58L52 50Z" fill="#EAF5FF" fill-opacity="0.85" />
  </g>
</svg>