<svg xmlns="http://www.w3.org/2000/svg" version="1.1" xmlns:xlink="http://www.w3.org/1999/xlink" xmlns:svgjs="http://svgjs.dev/svgjs" width="1440" height="560" preserveAspectRatio="none" viewBox="0 0 1440 560"><g mask="url(&quot;#SvgjsMask1073&quot;)" fill="none"><rect width="1440" height="560" x="0" y="0" fill="rgba(31, 41, 55, 1)"></rect><path d="M -849.4772241949487,212 C -705.48,230.4 -417.48,330.8 -129.47722419494872,304 C 158.52,277.2 302.52,58.6 590.5227758050513,78 C 878.52,97.4 1140.63,397.6 1310.5227758050512,401 C 1480.42,404.4 1414.1,156.2 1440,95" stroke="rgba(102, 118, 141, 1)" stroke-width="2"></path><path d="M -164.88547262354894,281 C -20.89,253 267.11,114.8 555.1145273764511,141 C 843.11,167.2 987.11,424.6 1275.114527376451,412 C 1563.11,399.4 1962.14,99.8 1995.114527376451,78 C 2028.09,56.2 1551.02,258 1440,303" stroke="rgba(102, 118, 141, 1)" stroke-width="2"></path></g><defs><mask id="SvgjsMask1073"><rect width="1440" height="560" fill="#ffffff"></rect></mask></defs></svg>